<svg id="Layer_1" data-name="Layer 1" xmlns="http://www.w3.org/2000/svg" viewBox="0 0 366 200"><path d="M240.33,64.34A28.62,28.62,0,0,0,240,59.7c-.88-5.53-3.65-9.21-8.47-11.25A20.49,20.49,0,0,0,223.31,47c-15.47,0-32.2,0-52.65,0h-.29a37.4,37.4,0,0,0-5.07.22c-6.38.85-10.58,4.07-12.49,9.56a18.15,18.15,0,0,0-.92,6.47c0,.7-.15.88-.92,1a29.57,29.57,0,0,0-19.53,46.8,28.9,28.9,0,0,0,19.5,11.65c.79.11,1,.32.95,1.12a42.08,42.08,0,0,0,.56,9.67c1.47,7.08,4.79,12.2,10.15,15.66a23.63,23.63,0,0,0,12.81,3.78c6,0,12,.05,18,.05h23.41l.45,0c8.34-.64,14.38-3.83,18.47-9.76,3.07-4.46,4.57-9.73,4.58-16.09q0-10.53,0-21.06c0-3.51,0-7,0-10.54V89.39q0-12.52,0-25ZM151.94,88.17V99c0,5.32,0,10.82,0,16.22,0,.48-.05.74-.17.85s-.39.1-.83,0a23,23,0,0,1-.12-45.28,3,3,0,0,1,.54-.06.62.62,0,0,1,.38.09c.14.12.2.42.2,1C151.94,77.3,151.94,82.83,151.94,88.17ZM233.8,77.39q0,24.9,0,49.79a21.51,21.51,0,0,1-3,11.72c-2.85,4.55-7.36,7-13.78,7.5-1.28.1-2.6.1-3.86.1H178c-4.69,0-8.12-.75-11.1-2.44-4.25-2.41-6.84-6.35-7.93-12a30.88,30.88,0,0,1-.43-5.84V89q0-12.4,0-24.81a18.69,18.69,0,0,1,.35-4.24A7.45,7.45,0,0,1,166,53.72c1.32-.11,2.67-.16,4-.17h53.24a17.2,17.2,0,0,1,4.79.51,7.14,7.14,0,0,1,5.2,5.14,15.24,15.24,0,0,1,.54,4.36Z"/></svg>