<svg id="Layer_1" data-name="Layer 1" xmlns="http://www.w3.org/2000/svg" viewBox="0 0 366 200"><path d="M249.47,98.08s-.39-8.12-.61-12.16a38.5,38.5,0,0,0-29.19-35.3c-4.88-1.22-9.84-1.16-14.8-1.11a2.16,2.16,0,0,1-2.1-1c-1.73-2.46-7-3-8.84-.62-1.26,1.59-2.58,1.7-4.22,1.62-.86,0-1.71,0-2.57,0-21.29.23-37.84,16.26-38.63,37.5-.27,7.25-.4,14.51-.53,21.77,0,1.16-.34,1.59-1.5,1.89a207.22,207.22,0,0,0-27.1,9c-1.64.67-2.84,1.67-2.89,3.61s.83,3.16,2.8,4A103.49,103.49,0,0,0,143.88,134c8.21,1.34,16.46,2.39,24.68,3.63a81.6,81.6,0,0,0,34.55-2c9.6-2.67,18.2-7.44,26.54-12.72a18.23,18.23,0,0,1,5.68-2.38c3.93-.94,7.82-2.07,11.22-4.41a6.14,6.14,0,0,0,3-5.64C249.37,106.3,249.47,102.19,249.47,98.08ZM152.09,85.22c.94-16.19,13.89-29.9,30-32a22.66,22.66,0,0,1,4.68-.25,40,40,0,0,0-7.92,4.4c-9.07,6.92-13.44,16.17-13.51,27.48q-.09,15.69,0,31.39c0,1.36-.31,1.55-1.6,1.23a47.2,47.2,0,0,1-9.84-3.21,4.2,4.2,0,0,1-2.68-4.51C151.64,101.54,151.61,93.37,152.09,85.22Zm57.15,44.56a79.06,79.06,0,0,1-40.72,4.29c-11.24-1.67-22.53-2.93-33.6-5.53a88.31,88.31,0,0,1-13.87-4.29c-.47-.2-1.17-.27-1.23-.88s.71-.7,1.14-.88a224.41,224.41,0,0,1,25.88-8.64,2,2,0,0,1,2.52.81,13.34,13.34,0,0,0,5.76,3.6,79.29,79.29,0,0,0,19.58,4.48,205.1,205.1,0,0,0,29.73,1.32c6.25-.16,12.47-.69,18.72-1.31A75,75,0,0,1,209.24,129.78Zm19.62-12.65c0,1-.25,1.35-1.29,1.5a200.71,200.71,0,0,1-56.14.24c-2.79-.37-2.79-.39-2.78-3.23,0-11.1-.29-22.21.14-33.3.43-11.55,6.25-20,16.58-25.23A92.28,92.28,0,0,1,195.21,53a10.13,10.13,0,0,1,6.76-.12c4.77,1.76,9.66,3.4,13.9,6.34a28.85,28.85,0,0,1,13.07,24c.16,5.43-.1,16.33-.1,16.33C228.84,105.39,228.82,111.26,228.86,117.13Zm15.93-3.68c-3.62,2.32-7.75,3.19-11.84,4.17-.45.1-.73,0-.71-.55,0-.37,0-.75,0-1.12,0-11,.27-22.11-.11-33.15-.46-13.45-7.13-23.12-19.25-29-.46-.23-.94-.44-1.41-.65A32.14,32.14,0,0,1,232.9,60.9a34.46,34.46,0,0,1,12.74,26c.31,7.84.37,15.69.6,23.54A3.1,3.1,0,0,1,244.79,113.45Z"/><path d="M188.86,125.86c-3.92.44-6.93,2.41-6.7,4.39s3.58,3.24,7.51,2.8,6.93-2.41,6.7-4.39S192.79,125.42,188.86,125.86Z"/></svg>