<svg id="Layer_1" data-name="Layer 1" xmlns="http://www.w3.org/2000/svg" viewBox="0 0 366 200"><path d="M255.37,83.18Q245,62.24,234.62,41.28a2.71,2.71,0,0,0-.21-.37,7.22,7.22,0,0,0-1.61-2,6.16,6.16,0,0,0-.69-.55,4.87,4.87,0,0,0-.47-.32l-.1-.07c-8-5.07-16-10.11-23.9-15.29a13.19,13.19,0,0,0-2.88-1.45,10.16,10.16,0,0,0-9.15,1.19A21.67,21.67,0,0,1,183,25.54a21.67,21.67,0,0,1-12.61-3.14,10.16,10.16,0,0,0-9.15-1.19,13.19,13.19,0,0,0-2.88,1.45c-7.92,5.18-15.92,10.22-23.9,15.29l-.1.07a3.88,3.88,0,0,0-.47.32c-.24.18-.48.37-.69.55a7.22,7.22,0,0,0-1.61,2,2.71,2.71,0,0,0-.21.37q-10.35,21-20.75,41.9a6.28,6.28,0,0,0-.77,2.71,2.44,2.44,0,0,0,0,.27,2.87,2.87,0,0,0,.36,1.24c0,.07.09.15.14.23a3.69,3.69,0,0,0,.25.34l.3.32a6.46,6.46,0,0,0,1.24,1l.07,0c.24.16.49.3.75.46,7,4,13.88,8,20.87,11.88a3.47,3.47,0,0,1,.66.46,1.06,1.06,0,0,1,.15.15l.13.16a1.1,1.1,0,0,1,.14.21,1.41,1.41,0,0,1,.19.47c0,.08,0,.17,0,.26l0,.24c0,.14,0,.3,0,.45v.06c0,11.7,0,23.4,0,35.09v.93c0,.28,0,.57,0,.84v0c0,3.45,0,6.91,0,10.36,0,.45,0,.91,0,1.36v.19q0,10.74,0,21.47c0,.15,0,.28,0,.42s0,.51.06.75a5.4,5.4,0,0,0,.26,1.17,1,1,0,0,0,.06.16,4.31,4.31,0,0,0,.22.49,3.56,3.56,0,0,0,.6.87,4.8,4.8,0,0,0,1.58,1.14h90.12a4.8,4.8,0,0,0,1.58-1.14,3.56,3.56,0,0,0,.6-.87,3.06,3.06,0,0,0,.22-.49,1,1,0,0,0,.06-.16,5.4,5.4,0,0,0,.26-1.17q0-.36.06-.75c0-.14,0-.27,0-.42q0-10.72,0-21.47v-.19c0-.46,0-.92,0-1.36,0-3.45,0-6.91,0-10.36v0c0-.27,0-.56,0-.84v-.93c0-11.69,0-23.39,0-35.09V104c0-.15,0-.28,0-.41l0-.24a2,2,0,0,1,0-.26,2.43,2.43,0,0,1,.19-.47,1.1,1.1,0,0,1,.14-.21.65.65,0,0,1,.13-.16,1.06,1.06,0,0,1,.15-.15,3.47,3.47,0,0,1,.66-.46c7-3.91,13.91-7.91,20.87-11.88.26-.16.51-.3.75-.46l.07,0a6.46,6.46,0,0,0,1.24-1,3,3,0,0,0,.3-.32c.09-.12.18-.23.25-.34s.09-.16.14-.23a2.87,2.87,0,0,0,.36-1.24,2.44,2.44,0,0,0,0-.27A6.28,6.28,0,0,0,255.37,83.18ZM183,30.24a36.51,36.51,0,0,0,15.16-4.45,13.58,13.58,0,0,1-.49,1.9l0,.1a15.3,15.3,0,0,1-5.35,7.37l-.31.22-.54.36-.55.34A17.33,17.33,0,0,1,188,37.44c-.2.07-.39.14-.6.2s-.71.2-1.06.27-.54.12-.8.16l-.79.11h-.09l-.78.07c-.26,0-.52,0-.78,0h-.14c-.26,0-.52,0-.78,0a13.39,13.39,0,0,1-1.66-.19c-.26,0-.53-.1-.8-.16s-.71-.17-1.06-.27l-.6-.2a17.33,17.33,0,0,1-2.93-1.36,6.26,6.26,0,0,1-.55-.34l-.54-.36-.31-.22a15.3,15.3,0,0,1-5.35-7.37l0-.1a13.58,13.58,0,0,1-.49-1.9A36.51,36.51,0,0,0,183,30.24Zm-19.16-1.1a13.31,13.31,0,0,0,.46,1.25s0,0,0,0c.16.39.34.79.53,1.17s.26.52.4.78a18.28,18.28,0,0,0,1.31,2.12,20.87,20.87,0,0,0,2.89,3.26,6,6,0,0,0,.46.4l.43.37c.18.15.37.29.56.43l.69.5.71.46c.28.18.58.35.87.52l.62.33.77.37.79.34a19.06,19.06,0,0,0,5.93,1.41c.29,0,.59,0,.89.06h0l.59,0h.3l.73,0h0c.3,0,.6,0,.89-.06a19.06,19.06,0,0,0,5.93-1.41l.79-.34.77-.37.62-.33c.29-.17.59-.34.87-.52l.71-.46c.23-.16.46-.32.69-.5s.38-.28.56-.43l.43-.37a6,6,0,0,0,.46-.4,20,20,0,0,0,2.89-3.26,18.28,18.28,0,0,0,1.31-2.12c.14-.26.28-.52.4-.78s.37-.78.53-1.17a.06.06,0,0,0,0,0,13.31,13.31,0,0,0,.46-1.25c.07-.2.14-.42.21-.64.18-.59.34-1.2.47-1.83.18-.83.27-1.13,1.12-.56,1.54,1.05,2.25,1.24,2.4,1.73,0,0,0,0,0,0a2.26,2.26,0,0,1-.07.75.21.21,0,0,0,0,.06c-.12.43-.34,1-.62,1.92a21.83,21.83,0,0,1-3.18,6.11c-.08.12-.18.25-.28.38a25.7,25.7,0,0,1-9.63,7.62l-.33.15a23.88,23.88,0,0,1-18.48,0l-.33-.15a25.7,25.7,0,0,1-9.63-7.62c-.1-.13-.2-.26-.28-.38a21.83,21.83,0,0,1-3.18-6.11c-.28-.89-.5-1.49-.62-1.92,0,0,0,0,0,0s0,0,0,0a2.26,2.26,0,0,1-.07-.75s0,0,0,0c.15-.49.86-.68,2.4-1.73.85-.57.94-.27,1.12.56.13.63.29,1.24.47,1.83Zm67.44,67.59a1.77,1.77,0,0,1-.32,0,1.3,1.3,0,0,1-.15-.43V95.5a1.09,1.09,0,0,0,0-.18q0-10.54,0-21.08V74a5.25,5.25,0,0,0-.11-1.43,2.2,2.2,0,0,0-.17-.45,2,2,0,0,0-.38-.59,1.7,1.7,0,0,0-.19-.19,1.78,1.78,0,0,0-.68-.39l-.36-.08a2.6,2.6,0,0,0-.74,0l-.1,0a1.91,1.91,0,0,0-.33.06,2.05,2.05,0,0,0-.37.13,2,2,0,0,0-.32.18,1.56,1.56,0,0,0-.28.23,2.08,2.08,0,0,0-.53,1,2.46,2.46,0,0,0-.1.47c0,.12,0,.23,0,.34s0,.23,0,.35,0,.37,0,.55v66c0,.29,0,.58,0,.87h0v9.48c0,.42,0,.85,0,1.27,0,6.59,0,13.18,0,19.77v1.33a4.33,4.33,0,0,1-.06.87,1.09,1.09,0,0,1-.28.58l-.11.08a.28.28,0,0,1-.12.08.47.47,0,0,1-.15.06,2.81,2.81,0,0,1-1,.13q-41.4-.06-82.79,0a3,3,0,0,1-1-.13.47.47,0,0,1-.15-.06.28.28,0,0,1-.12-.08l-.11-.08a1.09,1.09,0,0,1-.28-.58,4.33,4.33,0,0,1-.06-.87v-1.33c.06-6.59,0-13.18,0-19.77,0-.42,0-.85,0-1.27v-9.48h0c0-.29,0-.58,0-.87V73.63c0-.12,0-.23,0-.35s0-.22,0-.34a2.46,2.46,0,0,0-.1-.47,2.08,2.08,0,0,0-.53-1,1.27,1.27,0,0,0-.28-.23,2,2,0,0,0-.32-.18,2.05,2.05,0,0,0-.37-.13,1.91,1.91,0,0,0-.33-.06,1.25,1.25,0,0,0-.19,0,2.78,2.78,0,0,0-.65,0l-.36.08a1.78,1.78,0,0,0-.68.39,1.7,1.7,0,0,0-.19.19,2,2,0,0,0-.38.59,2.2,2.2,0,0,0-.17.45A5.25,5.25,0,0,0,135.2,74v.22q0,10.53,0,21.08a1.09,1.09,0,0,0,0,.18v.85a1.3,1.3,0,0,1-.15.43,1.77,1.77,0,0,1-.32,0h0l-.86-.47-.17-.1-3.49-2c-1.78-1-3.58-2-5.36-3.07q-4.44-2.55-8.93-5.06s-.05,0-.06-.05a1.14,1.14,0,0,1-.53-1.71.61.61,0,0,1,0-.12c.16-.34.34-.67.5-1,5.06-10.11,10.13-20.22,15.08-30.38q1.84-3.72,3.68-7.44l0-.05.8-1.63a3.62,3.62,0,0,1,1.21-1.56l1.88-1.19,0,0,2.36-1.49c4.81-2.83,9.48-5.94,14.33-9,.12.34.25.67.37,1s.21.58.31.86.26.71.41,1.06c.2.52.41,1,.65,1.52.05.09.09.18.13.27.19.42.4.82.62,1.22s.43.78.67,1.17.39.64.6,1a23.21,23.21,0,0,0,1.45,2c.09.11.18.23.27.32a28.89,28.89,0,0,0,8,6.8h0l.37.24a27.06,27.06,0,0,0,13,3.61l.88,0c.29,0,.59,0,.88,0a27.06,27.06,0,0,0,13-3.61l.37-.24h0a28.89,28.89,0,0,0,8-6.8c.09-.09.18-.21.27-.32a23.21,23.21,0,0,0,1.45-2c.21-.32.4-.63.6-1s.46-.78.67-1.17a1.27,1.27,0,0,1,.07-.12c.14-.27.27-.55.41-.82l.14-.28c0-.09.08-.18.13-.27.14-.31.27-.62.41-.92q.09-.21.18-.45l.06-.15c.15-.35.28-.7.41-1.06s.2-.57.31-.86.25-.66.37-1c4.85,3.05,9.52,6.16,14.33,9l2.36,1.49,0,0,1.88,1.19a3.62,3.62,0,0,1,1.21,1.56l.8,1.63,0,.05q1.83,3.72,3.68,7.44c4.95,10.16,10,20.27,15.08,30.38.14.27.27.54.41.82a2.63,2.63,0,0,1,.14.3,1.14,1.14,0,0,1-.53,1.71,2,2,0,0,1-.3.18q-4.35,2.44-8.69,4.93c-1.78,1-3.58,2-5.36,3.07l-3.49,2-.17.1-.86.47Z"/></svg>