<svg id="Layer_1" data-name="Layer 1" xmlns="http://www.w3.org/2000/svg" viewBox="0 0 366 200"><path d="M163.07,70.72h-2.21V35.29a4.45,4.45,0,0,0-4.43-4.43H145.36a4.44,4.44,0,0,0-4.43,4.43V70.72H136.5v-31a2.28,2.28,0,0,0-.23-1l-5.54-11.07a2.31,2.31,0,0,0-3.16-.8,2.27,2.27,0,0,0-.8.8l-5.54,11.07a2.28,2.28,0,0,0-.23,1v31a4.43,4.43,0,0,0-4.43,4.43v77.5a6.64,6.64,0,0,0,6.64,6.64h37.65a6.64,6.64,0,0,0,6.64-6.64V75.15A4.43,4.43,0,0,0,163.07,70.72Zm-17.71-6.64h4.43a2.22,2.22,0,0,0,0-4.43h-4.43V55.22h4.43a2.22,2.22,0,0,0,0-4.43h-4.43V46.36h4.43a2.21,2.21,0,1,0,0-4.42h-4.43V35.29h11.07V70.72H145.36ZM125.43,40.24l3.32-6.64,3.32,6.64V70.72h-6.64Zm37.64,112.41a2.21,2.21,0,0,1-2.21,2.21H123.21a2.21,2.21,0,0,1-2.21-2.21V75.15h42.07Z"/><path d="M231.71,137.15H187.43a2.22,2.22,0,1,0,0,4.43h44.28a2.22,2.22,0,1,1,0,4.43h-4.42a2.22,2.22,0,1,0,0,4.43h4.42a6.65,6.65,0,1,0,0-13.29Z"/><path d="M218.43,146h-6.64a2.22,2.22,0,1,0,0,4.43h6.64a2.22,2.22,0,0,0,0-4.43Z"/><path d="M205.14,146H187.43a2.22,2.22,0,1,0,0,4.43h17.71a2.22,2.22,0,1,0,0-4.43Z"/><path d="M249.43,130.51a6.67,6.67,0,0,0-4.43-6.27v-14a6.67,6.67,0,0,0,4.43-6.26,2.21,2.21,0,0,0-2.22-2.22h-59.4a15.91,15.91,0,0,0-15.87,15A15.34,15.34,0,0,0,176.3,128l.3.28h-2.46a2.21,2.21,0,0,0-2.21,2.22,6.64,6.64,0,0,0,4.43,6.26v14a6.63,6.63,0,0,0-4.43,6.26,2.21,2.21,0,0,0,2.21,2.21h59.79a15.5,15.5,0,0,0,15.5-15.5c0-.16,0-.31,0-.47a15.19,15.19,0,0,0-4.87-10.6h2.66A2.21,2.21,0,0,0,249.43,130.51Zm-73.07-13.63A11.45,11.45,0,0,1,188,106.15h54.81a2.21,2.21,0,0,0-2.22,2.21v17.72a2.21,2.21,0,0,0,2.22,2.21H187.43a11.07,11.07,0,0,1-11.07-11.41ZM245,143.45a11.07,11.07,0,0,1-10.72,11.41h-55.7a2.22,2.22,0,0,0,2.22-2.21V134.94a2.22,2.22,0,0,0-2.22-2.22h54.8A11.45,11.45,0,0,1,245,143.45Z"/><path d="M189.64,123.86h4.43a2.21,2.21,0,1,0,0-4.42h-4.43a2.22,2.22,0,0,1,0-4.43h44.29a2.22,2.22,0,0,0,0-4.43H189.64a6.64,6.64,0,1,0,0,13.28Z"/><path d="M209.57,119.44h-6.64a2.21,2.21,0,1,0,0,4.42h6.64a2.21,2.21,0,1,0,0-4.42Z"/><path d="M233.93,119.44H216.21a2.21,2.21,0,0,0,0,4.42h17.72a2.21,2.21,0,0,0,0-4.42Z"/><path d="M156.43,146a2.21,2.21,0,0,0,2.21-2.22V84a2.22,2.22,0,1,0-4.43,0v59.78A2.22,2.22,0,0,0,156.43,146Z"/></svg>