<svg id="Layer_1" data-name="Layer 1" xmlns="http://www.w3.org/2000/svg" viewBox="0 0 366 200"><path d="M248.11,116.22a296.17,296.17,0,0,0-4.66-34.33c0-.1,0-.2-.08-.3h0L241,71.72a4.34,4.34,0,0,0-.11-.59l-.18-.59-.06-.26h0c-.58-2-1.17-4-1.81-5.93a21.58,21.58,0,0,0-11.31-13.21c-3.53-1.74-7.15-3.31-10.72-5-.39-.18-1.06-.2-1-.87.4-2.55-.61-4.85-1.33-7.17a12.77,12.77,0,0,0-9.26-9,81.68,81.68,0,0,0-43.92-.22c-7.74,2-10.62,8.27-11.23,15.77-.07.84-.19,1.25-1,1.59-3.16,1.4-6.29,2.87-9.45,4.29A22.25,22.25,0,0,0,127.25,64a148.74,148.74,0,0,0-5.57,22.23c-1.83,10.19-3,20.47-3.87,30.8q-1.4,17.24-1.22,34.53c0,1.88.54,3.74,2.23,4.58s1.88,2.11,1.74,3.68a6.31,6.31,0,0,0,0,.87,5.55,5.55,0,0,0,5.81,5.81c4,0,8,0,12,0a5.63,5.63,0,0,0,4.86-2.34c.32-.42.59-.85,1.12-.39s2-.05,1.91,1.45a15.3,15.3,0,0,0,.14,3.45c.52,2.84,2.58,4.32,5.06,5.36h62.76c4.35-1.73,5.5-3.45,5.5-8.17,0-.34,0-.68,0-1,0-1.29,1.28-.91,1.88-1.42s.77.24,1,.58a5.56,5.56,0,0,0,4.78,2.5c4.14,0,8.29,0,12.44,0a5.53,5.53,0,0,0,5.59-5.46c0-1.05,0-2.11,0-3.17,0-.37-.05-.72.45-.93,2.81-1.19,3.53-3.49,3.54-6.33C249.47,139.12,249.05,127.66,248.11,116.22ZM208.62,36a16.54,16.54,0,0,1,2.92,8.13,3.23,3.23,0,0,1-2,3.4c-5.11,2.14-10.27,4.15-15.41,6.2A120.74,120.74,0,0,0,208.62,36ZM188.45,52.82c-1.55,1.44-3.18,2.81-4.75,4.23-.46.41-.78.55-1.32.08a129.7,129.7,0,0,1-12.44-12,244.51,244.51,0,0,1,26.11,0A100.89,100.89,0,0,1,188.45,52.82ZM205,33.53a72.72,72.72,0,0,1-5,7c-.36.49-.81.41-1.29.38a258,258,0,0,0-31.46,0,1.36,1.36,0,0,1-1.39-.48,74.62,74.62,0,0,1-4.91-6.9A76.14,76.14,0,0,1,205,33.53Zm-50.47,9.56c.68-2.41,1-5,2.85-7a95.05,95.05,0,0,0,6.85,9.17c2.44,2.88,5,5.62,7.59,8.47-5.06-2-10.14-4-15.17-6.07A3.72,3.72,0,0,1,154.55,43.09ZM136.27,162.16c-3.17,0-6.34,0-9.51,0-1.37,0-1.89-.51-1.89-1.87,0-3,0-3,3-3h4.61c2.12,0,4.23,0,6.34,0,.85,0,1.17.15,1.16,1.09C139.88,162.4,140.33,162.18,136.27,162.16ZM140,141.83c0,.11,0,.22,0,.34,0,3.23,0,6.46,0,9.69,0,.86-.16,1.14-1.09,1.13q-8.1-.06-16.19,0c-1.24,0-1.75-.45-1.76-1.68-.05-10.08.21-20.14.95-30.2.71-9.8,1.73-19.57,3.29-29.28a162.42,162.42,0,0,1,6.07-25.95,16,16,0,0,1,1.92-4.16,90.37,90.37,0,0,1,4.15,13.4,102.79,102.79,0,0,1,2.65,23.78c0,10.45,0,20.91,0,31.38,0,.43,0,.86,0,1.29,0,0,0,0,0,.05Zm75.45,25.06c0,1.93-.9,2.79-2.86,2.8H154.17c-3.06,0-4.47-1.93-3.59-4.84.21-.69.71-.37,1.06-.38,3.8,0,7.61,0,11.42,0h50.42c1.92,0,1.92,0,1.92,1.85Zm6.35-70.09c-.06,19.33,0,38.66,0,58,0,3.82-1.51,5.33-5.32,5.33H148.59c-3.22,0-4.33-1.1-4.33-4.33,0-4.54,0-9.06,0-13.6,0-.14,0-.27,0-.41V131.61s0-.07,0-.11c0-.24,0-.48,0-.72,0-11.38.05-22.76,0-34.13a101.93,101.93,0,0,0-7.38-37.3,1.88,1.88,0,0,1,.8-2.69,29.21,29.21,0,0,1,4.41-2.44c3-1.37,6-2.73,9-4.16a1.34,1.34,0,0,1,1.85.29,8.07,8.07,0,0,0,3.09,1.8c5.77,2.26,11.53,4.55,17.31,6.76a1.73,1.73,0,0,1,1.32,2c0,7.09,0,14.18,0,21.26a5.44,5.44,0,0,0,.15,1.57,2.13,2.13,0,0,0,4.16-.43,11.29,11.29,0,0,0,0-1.3V61.22a11.12,11.12,0,0,0,8,0v9.72c0,.67,0,1.35,0,2,0,1.63.78,2.53,2.1,2.56s2.22-1,2.24-2.62c0-1.92,0-3.85,0-5.78,0-2.12.06-4.24,0-6.36A1.53,1.53,0,0,1,192.53,59c5.73-2.22,11.45-4.49,17.17-6.73a7.52,7.52,0,0,0,3.13-1.73c.83-1,1.54-.7,2.47-.26,3.47,1.64,7,3.15,10.45,4.86,4.14,2.06,4.09,2.12,2.52,6.38A102.6,102.6,0,0,0,221.75,96.8Zm15.62,65.37c-3.17,0-6.34,0-9.51,0-1.28,0-1.82-.44-1.82-1.76,0-3.11,0-3.11,3-3.11h4.62c2.16,0,4.32,0,6.48,0,.77,0,1,.23,1,1C241.08,162.39,241.45,162.2,237.37,162.17Zm7.7-11.12c0,1.69-.24,1.92-1.94,1.92-5.2,0-10.41-.05-15.61,0-1.2,0-1.49-.28-1.48-1.48q.06-26.48,0-52.94A102.67,102.67,0,0,1,229,73.83a86.76,86.76,0,0,1,3.86-12.11,12.78,12.78,0,0,1,1.68,3.48c.71,2.23,1.38,4.46,2.09,6.68q1.26,5.36,2.54,10.7h0c0,.07,0,.13,0,.2a274.89,274.89,0,0,1,4,27.57A376.25,376.25,0,0,1,245.07,151.05Z"/><path d="M213.27,128.24A32.62,32.62,0,0,1,203.33,117a5.51,5.51,0,0,0-5.18-3.09q-15.17,0-30.34,0a5.41,5.41,0,0,0-5.09,3,33.4,33.4,0,0,1-10.13,11.46,6,6,0,0,0-2.59,5.2c0,4.72,0,9.44,0,14.16,0,4.55,2.18,6.74,6.69,6.75h26.16q13.29,0,26.59,0c4.26,0,6.52-2.26,6.52-6.48,0-4.76,0-9.53,0-14.31A6.26,6.26,0,0,0,213.27,128.24Zm-1.63,19.67c0,1.88-.31,2.21-2.18,2.21H156.82c-2.24,0-2.47-.23-2.47-2.5,0-4.57,0-9.15,0-13.73a2.54,2.54,0,0,1,1.15-2.3,34.87,34.87,0,0,0,10.78-12.24,2,2,0,0,1,2-1.14q14.74,0,29.51,0a2.07,2.07,0,0,1,2,1.28,34.28,34.28,0,0,0,10.5,11.92,3,3,0,0,1,1.37,2.78C211.6,138.76,211.65,143.33,211.64,147.91Z"/></svg>