<svg id="Layer_1" data-name="Layer 1" xmlns="http://www.w3.org/2000/svg" viewBox="0 0 366 200"><defs><style>.cls-1{fill-rule:evenodd;}</style></defs><path class="cls-1" d="M204.93,42.69H183A15.58,15.58,0,0,0,172,47.27l-62.52,62.52a15.61,15.61,0,0,0,0,22.1l41.68,41.68a15.61,15.61,0,0,0,22.1,0l62.52-62.52a15.58,15.58,0,0,0,4.58-11V78.07a28.65,28.65,0,1,0-35.38-35.38Zm9.52,10.42A18.21,18.21,0,0,0,219.6,63.4a5.2,5.2,0,1,1-7.36,7.36A28.48,28.48,0,0,1,204,53.11H183a5.17,5.17,0,0,0-3.68,1.52L116.8,117.15a5.2,5.2,0,0,0,0,7.37l41.68,41.68a5.2,5.2,0,0,0,7.37,0l62.52-62.52a5.17,5.17,0,0,0,1.52-3.68V58.32a5.21,5.21,0,0,0-5.21-5.21ZM240.31,67A18.24,18.24,0,1,0,219.6,37.61,18.33,18.33,0,0,0,216,42.69h8.66a15.62,15.62,0,0,1,15.63,15.63Z"/></svg>