<?xml version="1.0" encoding="utf-8"?>
<!-- Generator: Adobe Illustrator 21.0.0, SVG Export Plug-In . SVG Version: 6.00 Build 0)  -->
<svg version="1.1" id="Layer_1" xmlns="http://www.w3.org/2000/svg" xmlns:xlink="http://www.w3.org/1999/xlink" x="0px" y="0px"
	 viewBox="0 0 63.4 80.3" style="enable-background:new 0 0 63.4 80.3;" xml:space="preserve">
<path d="M58.9,71.6l-4.1-48.4c-0.1-1.3-1.2-2.2-2.5-2.2h-6.8v-1.9C45.3,11.4,39,5.4,31.4,5.6C23.9,5.7,18,11.7,17.8,19.1V21H11
	c-1.3,0-2.4,0.9-2.5,2.2L4.4,72c-0.1,1.4,0.9,2.6,2.3,2.7c0.1,0,0.2,0,0.2,0h49.6c1.4,0,2.5-1.1,2.5-2.5l0,0
	C59,72,59,71.8,58.9,71.6z M22.8,19.1c0-4.9,4-8.9,8.9-8.9s8.9,4,8.9,8.9l0,0V21H22.8V19.1z M9.6,69.6l3.8-43.7h4.5v5.4
	c0,1.4,1.1,2.5,2.5,2.5c1.4,0,2.5-1.1,2.5-2.5v-5.4h17.7v5.4c0,1.4,1.1,2.5,2.5,2.5c1.4,0,2.5-1.1,2.5-2.5l0,0v-5.4H50l3.8,43.7H9.6
	z"/>
</svg>
