<?xml version="1.0" encoding="utf-8"?>
<!-- Generator: Adobe Illustrator 21.0.0, SVG Export Plug-In . SVG Version: 6.00 Build 0)  -->
<svg version="1.1" id="Layer_1" xmlns="http://www.w3.org/2000/svg" xmlns:xlink="http://www.w3.org/1999/xlink" x="0px" y="0px"
	 viewBox="0 0 80.7 78.5" style="enable-background:new 0 0 80.7 78.5;" xml:space="preserve">
<path d="M75,28.7c-0.4-3.1-2.6-5.8-5.5-6.7c-0.3-0.1-0.6-0.2-0.9-0.2c-0.3,0-0.4-0.1-0.7-0.1h-9c0-2.6,0-5.2,0-7.7
	c0.1-4-2.7-7.4-6.5-8.2c-0.1,0-0.2,0-0.3,0c-0.2,0-0.3,0-0.3-0.1V5.5H12.8c-0.2,0.1-0.4,0.1-0.6,0.1c-0.3,0-0.7,0.1-0.9,0.2
	c-3,1-5.2,3.7-5.6,6.8v42.7h0.2c0,0,0,0.1,0.1,0.1c0,0.1,0,0.1,0.1,0.2c0.3,0.5,0.8,0.9,1.4,1.1c0.6,0.2,1.2,0.1,1.7-0.3
	c0.3-0.2,0.6-0.4,0.9-0.7l0.4-0.3c3.4-2.8,6.8-5.7,10.2-8.5c0.3-0.2,0.5-0.3,0.9-0.3h0.4v7.8c0,0.6,0.1,1.3,0.2,1.9
	c0.9,3.9,4.3,6.6,8.2,6.5c1.8,0,3.5,0,5.3,0h23.6c0.3,0,0.6,0.1,0.9,0.3c3.4,2.8,6.8,5.7,10.2,8.5l0.4,0.3c0.3,0.3,0.5,0.4,0.9,0.7
	c1,0.6,2.4,0.3,3-0.7c0-0.1,0.1-0.1,0.1-0.2c0-0.1,0.1-0.1,0.1-0.2v-0.1H75V28.7z M62.5,59.1c-0.7-0.6-1.5-0.9-2.3-0.9l0,0
	c-7.6,0-15.3,0-22.9,0h-6.4c-2.7,0-4.3-1.5-4.3-4.3v-7.4h18.6c1.8,0,3.6,0,5.3,0c4,0.1,7.4-2.7,8.2-6.5c0.2-0.6,0.2-1.3,0.2-1.9
	V26.2h7.3c2.7,0,4.3,1.5,4.3,4.3v35.3l-0.1-0.2l-1.9-1.5C66.5,62.5,64.4,60.8,62.5,59.1z M12.3,47.8l-1.9,1.6l-0.2,0.2V14.4
	c0-2.7,1.5-4.3,4.3-4.3H50c2.7,0,4.3,1.5,4.3,4.4v23.4c0,2.7-1.5,4.3-4.3,4.3H20.6c-0.9,0-1.7,0.3-2.3,0.9
	C16.3,44.5,14.3,46.2,12.3,47.8z"/>
<path d="M20.3,22.2h24c1,0.1,1.9-0.5,2.2-1.5c0.3-0.7,0.2-1.5-0.3-2.1c-0.4-0.7-1.2-1-2-1h-24c-1-0.1-2,0.5-2.3,1.5
	c-0.3,0.7-0.2,1.5,0.3,2.1C18.8,21.9,19.4,22.2,20.3,22.2z"/>
<path d="M30.3,30.3h5.8c0.9,0.1,1.6-0.3,2.1-1.1c0.4-0.7,0.4-1.5,0.1-2.2c-0.3-0.8-1.1-1.2-2-1.2H20.4c-0.7,0-1.4,0.3-1.9,0.7
	c-0.4,0.4-0.6,0.9-0.6,1.5c0,1.3,1.1,2.3,2.4,2.2c0.1,0,0.1,0,0.2,0L30.3,30.3L30.3,30.3z"/>
</svg>
