<?xml version="1.0" encoding="utf-8"?>
<!-- Generator: Adobe Illustrator 21.0.0, SVG Export Plug-In . SVG Version: 6.00 Build 0)  -->
<svg version="1.1" id="Layer_1" xmlns="http://www.w3.org/2000/svg" xmlns:xlink="http://www.w3.org/1999/xlink" x="0px" y="0px"
	 viewBox="0 0 85.8 63.8" style="enable-background:new 0 0 85.8 63.8;" xml:space="preserve">
<path d="M73.6,2H12.3C7,2,2.7,6.3,2.7,11.6v0v40.7c0,5.2,4.3,9.5,9.5,9.5h61.3c5.3,0,9.5-4.3,9.5-9.5v0V11.6
	C83.1,6.3,78.9,2.1,73.6,2C73.7,2,73.6,2,73.6,2z M79.2,52.3c0,3.1-2.5,5.6-5.6,5.6H12.3c-3.1,0-5.6-2.5-5.6-5.6V11.6
	c0-3.1,2.5-5.6,5.6-5.6h61.3c3.1,0,5.6,2.5,5.6,5.6v40.8H79.2z"/>
<path d="M73,13.1L45.9,40.2c-1.6,1.6-4.2,1.6-5.8,0L13,12.2c-0.8-0.8-2.1-0.9-2.9-0.1c-0.8,0.8-0.9,2.1-0.1,2.9l16.3,17l0,0
	L12.1,46.2c-0.8,0.8-0.9,2-0.1,2.8c0,0,0.1,0.1,0.1,0.1c0.8,0.8,2,0.9,2.8,0.1c0,0,0.1-0.1,0.1-0.1L29.2,35l7.9,8.2
	c1.5,1.6,3.7,2.4,5.9,2.4c2.2,0,4.3-0.9,5.9-2.4l8-8l0,0l13,13c0.4,0.4,0.9,0.6,1.5,0.6c0.6,0,1.1-0.2,1.5-0.6
	c0.8-0.7,0.9-2,0.1-2.8c0,0-0.1-0.1-0.1-0.1l-12.9-13l0,0L76,16.1c0.8-0.7,0.9-2,0.1-2.8c0,0-0.1-0.1-0.1-0.1
	c-0.7-0.8-2-0.9-2.8-0.2C73.1,13,73.1,13,73,13.1z"/>
</svg>
