<?xml version="1.0" encoding="utf-8"?>
<!-- Generator: Adobe Illustrator 21.0.0, SVG Export Plug-In . SVG Version: 6.00 Build 0)  -->
<svg version="1.1" id="Layer_1" xmlns="http://www.w3.org/2000/svg" xmlns:xlink="http://www.w3.org/1999/xlink" x="0px" y="0px"
	 viewBox="0 0 81.1 63" style="enable-background:new 0 0 81.1 63;" xml:space="preserve">
<path d="M9.6,4C7.2,3.9,5.2,5.7,5.1,8.1c-0.1,2.4,1.7,4.4,4.1,4.5c0.1,0,0.3,0,0.3,0h62c2.4,0.1,4.4-1.7,4.5-4.1
	C76.1,6.1,74.2,4,71.9,4c-0.1,0-0.3,0-0.3,0C71.5,4,9.6,4,9.6,4z M9.6,27.2c-2.4,0-4.3,1.9-4.3,4.3s1.9,4.3,4.3,4.3l0,0h62
	c2.4,0,4.3-1.9,4.3-4.3s-1.9-4.3-4.3-4.3C71.5,27.2,9.6,27.2,9.6,27.2z M9.6,50.4c-2.4-0.1-4.4,1.7-4.5,4.1
	c-0.1,2.4,1.7,4.4,4.1,4.5c0.1,0,0.3,0,0.3,0h62c2.4,0.1,4.4-1.7,4.5-4.1c0.1-2.4-1.7-4.4-4.1-4.5c-0.1,0-0.3,0-0.3,0H9.6z"/>
</svg>
