<?xml version="1.0" encoding="utf-8"?>
<!-- Generator: Adobe Illustrator 21.0.0, SVG Export Plug-In . SVG Version: 6.00 Build 0)  -->
<svg version="1.1" id="Layer_1" xmlns="http://www.w3.org/2000/svg" xmlns:xlink="http://www.w3.org/1999/xlink" x="0px" y="0px"
	 viewBox="0 0 74 122.2" style="enable-background:new 0 0 74 122.2;" xml:space="preserve">
<path d="M13,4.4h47.8c2.8-0.1,5.5,1.1,7.4,3.1c1.9,1.9,3.1,4.5,3.1,7.2v92.5c-0.1,5.8-4.8,10.4-10.6,10.6H13
	c-2.7-0.1-5.3-1.2-7.2-3.1c-2.1-1.9-3.2-4.6-3.1-7.4V14.7c0-2.7,1.1-5.4,3.1-7.2C7.7,5.5,10.3,4.4,13,4.4z M6.4,20.2h61.2v-5.4
	c-0.2-3.7-3.2-6.6-6.8-6.7H13c-1.8,0-3.5,0.7-4.6,2c-1.3,1.2-2.1,2.9-2,4.6L6.4,20.2z M67.6,95.9H6.4v11.5c0,1.8,0.7,3.5,2,4.8
	c1.2,1.3,2.9,2.1,4.6,2h47.8c1.8,0,3.5-0.7,4.8-2c1.2-1.3,2-3,2-4.8L67.6,95.9z M67.6,23.9H6.4v68.3h61.2L67.6,23.9z"/>
<path d="M36.9,102.7c1.7,0,3.3,0.7,4.4,2c1.2,1.1,1.9,2.7,1.8,4.4c0,1.6-0.6,3.2-1.8,4.4c-1.1,1.3-2.7,2-4.4,2
	c-1.7-0.1-3.2-0.8-4.4-2c-1.1-1.2-1.7-2.8-1.8-4.4c0-1.6,0.6-3.2,1.8-4.4C33.7,103.5,35.2,102.8,36.9,102.7z M38.5,107.5
	c-0.4-0.5-1-0.7-1.6-0.8c-0.6,0.1-1.1,0.3-1.4,0.8c-0.9,0.7-1.1,1.9-0.4,2.8c0.1,0.1,0.2,0.3,0.4,0.4c0.3,0.5,0.8,0.7,1.4,0.8
	c0.6-0.1,1.2-0.3,1.6-0.8C39.3,109.8,39.3,108.4,38.5,107.5z"/>
<path d="M29.5,9.6h14.8c1.1,0,2,0.9,2,2v0c0,1.1-0.9,2-2,2H29.5c-1.1,0-2-0.9-2-2v0C27.5,10.5,28.4,9.6,29.5,9.6z"/>
</svg>
