<?xml version="1.0" encoding="utf-8"?>
<!-- Generator: Adobe Illustrator 21.0.0, SVG Export Plug-In . SVG Version: 6.00 Build 0)  -->
<svg version="1.1" id="Layer_1" xmlns="http://www.w3.org/2000/svg" xmlns:xlink="http://www.w3.org/1999/xlink" x="0px" y="0px"
	 viewBox="0 0 80.7 80.6" style="enable-background:new 0 0 80.7 80.6;" xml:space="preserve">
<path d="M73.9,68.3l-17-17c9.4-12.5,7-30.4-5.6-39.8s-30.4-7-39.8,5.6s-7,30.4,5.6,39.8c5,3.7,11,5.7,17.2,5.7s12.3-2,17.2-5.7
	l17.1,16.9c0.7,0.8,1.7,1.1,2.7,1.1c1,0,2.1-0.4,2.7-1.1C75.4,72.1,75.3,69.7,73.9,68.3z M34.3,54.9c-11.5,0-20.9-9.3-20.9-20.8
	s9.4-20.8,20.9-20.8c5.5,0,10.8,2.2,14.7,6.1c3.9,3.9,6.2,9.2,6.1,14.7c0,5.5-2.1,10.8-6.1,14.7C45.1,52.7,39.8,55,34.3,54.9z"/>
</svg>
